<?xml version="1.0" encoding="UTF-8" standalone="no"?><svg height="7136" width="6616" xmlns="http://www.w3.org/2000/svg"><rect width="100%" height="100%" stroke-width="0" fill="rgb(0,0,0)"/><line x1="2832" y1="6784" x2="2864" y2="6784" style="stroke:rgb(255,255,255);stroke-width:1.5;vector-effect:non-scaling-stroke;" /><line x1="2960" y1="6784" x2="3088" y2="6656" style="stroke:rgb(211,115,115);stroke-width:1.5;vector-effect:non-scaling-stroke;" /><line x1="3088" y1="6656" x2="3248" y2="6592" style="stroke:rgb(211,115,115);stroke-width:1.5;vector-effect:non-scaling-stroke;" /><line x1="3376" y1="6592" x2="3536" y2="6656" style="stroke:rgb(211,115,115);stroke-width:1.5;vector-effect:non-scaling-stroke;" /><line x1="3536" y1="6656" x2="3664" y2="6784" style="stroke:rgb(211,115,115);stroke-width:1.5;vector-effect:non-scaling-stroke;" /><line x1="3664" y1="6784" x2="3792" y2="6784" style="stroke:rgb(211,115,115);stroke-width:1.5;vector-effect:non-scaling-stroke;" /><line x1="3792" y1="6976" x2="3664" y2="6976" style="stroke:rgb(211,115,115);stroke-width:1.5;vector-effect:non-scaling-stroke;" /><line x1="3664" y1="6976" x2="3536" y2="7104" style="stroke:rgb(211,115,115);stroke-width:1.5;vector-effect:non-scaling-stroke;" /><line x1="3536" y1="7104" x2="3376" y2="7136" style="stroke:rgb(211,115,115);stroke-width:1.5;vector-effect:non-scaling-stroke;" /><line x1="3376" y1="7136" x2="3248" y2="7136" style="stroke:rgb(211,115,115);stroke-width:1.5;vector-effect:non-scaling-stroke;" /><line x1="3248" y1="7136" x2="3088" y2="7104" style="stroke:rgb(211,115,115);stroke-width:1.5;vector-effect:non-scaling-stroke;" /><line x1="3088" y1="7104" x2="2960" y2="6976" style="stroke:rgb(211,115,115);stroke-width:1.5;vector-effect:non-scaling-stroke;" /><line x1="2864" y1="6976" x2="2832" y2="6976" style="stroke:rgb(255,255,255);stroke-width:1.5;vector-effect:non-scaling-stroke;" /><line x1="3216" y1="6912" x2="3216" y2="6848" style="stroke:rgb(255,187,147);stroke-width:1.5;vector-effect:non-scaling-stroke;" /><line x1="3216" y1="6848" x2="3280" y2="6784" style="stroke:rgb(255,187,147);stroke-width:1.5;vector-effect:non-scaling-stroke;" /><line x1="3280" y1="6784" x2="3344" y2="6784" style="stroke:rgb(255,187,147);stroke-width:1.5;vector-effect:non-scaling-stroke;" /><line x1="3344" y1="6784" x2="3408" y2="6848" style="stroke:rgb(255,187,147);stroke-width:1.5;vector-effect:non-scaling-stroke;" /><line x1="3408" y1="6848" x2="3408" y2="6912" style="stroke:rgb(255,187,147);stroke-width:1.5;vector-effect:non-scaling-stroke;" /><line x1="3408" y1="6912" x2="3344" y2="6976" style="stroke:rgb(255,187,147);stroke-width:1.5;vector-effect:non-scaling-stroke;" /><line x1="3344" y1="6976" x2="3280" y2="6976" style="stroke:rgb(255,187,147);stroke-width:1.5;vector-effect:non-scaling-stroke;" /><line x1="3280" y1="6976" x2="3216" y2="6912" style="stroke:rgb(255,187,147);stroke-width:1.5;vector-effect:non-scaling-stroke;" /><line x1="3248" y1="6592" x2="3248" y2="6560" style="stroke:rgb(211,115,115);stroke-width:1.5;vector-effect:non-scaling-stroke;" /><line x1="3248" y1="6560" x2="3248" y2="6528" style="stroke:rgb(211,115,115);stroke-width:1.5;vector-effect:non-scaling-stroke;" /><line x1="3248" y1="6528" x2="3248" y2="6496" style="stroke:rgb(211,115,115);stroke-width:1.5;vector-effect:non-scaling-stroke;" /><line x1="3248" y1="6496" x2="3248" y2="6464" style="stroke:rgb(211,115,115);stroke-width:1.5;vector-effect:non-scaling-stroke;" /><line x1="3248" y1="6464" x2="3248" y2="6432" style="stroke:rgb(211,115,115);stroke-width:1.5;vector-effect:non-scaling-stroke;" /><line x1="3248" y1="6432" x2="3248" y2="6400" style="stroke:rgb(211,115,115);stroke-width:1.5;vector-effect:non-scaling-stroke;" /><line x1="3248" y1="6400" x2="3248" y2="6368" style="stroke:rgb(211,115,115);stroke-width:1.5;vector-effect:non-scaling-stroke;" /><line x1="3248" y1="6368" x2="3248" y2="6336" style="stroke:rgb(211,115,115);stroke-width:1.5;vector-effect:non-scaling-stroke;" /><line x1="3248" y1="6336" x2="3248" y2="6304" style="stroke:rgb(211,115,115);stroke-width:1.5;vector-effect:non-scaling-stroke;" /><line x1="3248" y1="6304" x2="3248" y2="6272" style="stroke:rgb(211,115,115);stroke-width:1.5;vector-effect:non-scaling-stroke;" /><line x1="3248" y1="6272" x2="3248" y2="6240" style="stroke:rgb(211,115,115);stroke-width:1.5;vector-effect:non-scaling-stroke;" /><line x1="3248" y1="6240" x2="3248" y2="6208" style="stroke:rgb(211,115,115);stroke-width:1.5;vector-effect:non-scaling-stroke;" /><line x1="3376" y1="6208" x2="3376" y2="6240" style="stroke:rgb(211,115,115);stroke-width:1.5;vector-effect:non-scaling-stroke;" /><line x1="3376" y1="6240" x2="3376" y2="6272" style="stroke:rgb(211,115,115);stroke-width:1.5;vector-effect:non-scaling-stroke;" /><line x1="3376" y1="6304" x2="3376" y2="6336" style="stroke:rgb(211,115,115);stroke-width:1.5;vector-effect:non-scaling-stroke;" /><line x1="3376" y1="6336" x2="3376" y2="6368" style="stroke:rgb(211,115,115);stroke-width:1.5;vector-effect:non-scaling-stroke;" /><line x1="3376" y1="6368" x2="3376" y2="6400" style="stroke:rgb(211,115,115);stroke-width:1.5;vector-effect:non-scaling-stroke;" /><line x1="3376" y1="6400" x2="3376" y2="6432" style="stroke:rgb(211,115,115);stroke-width:1.5;vector-effect:non-scaling-stroke;" /><line x1="3376" y1="6432" x2="3376" y2="6464" style="stroke:rgb(211,115,115);stroke-width:1.5;vector-effect:non-scaling-stroke;" /><line x1="3376" y1="6464" x2="3376" y2="6496" style="stroke:rgb(211,115,115);stroke-width:1.5;vector-effect:non-scaling-stroke;" /><line x1="3376" y1="6496" x2="3376" y2="6528" style="stroke:rgb(211,115,115);stroke-width:1.5;vector-effect:non-scaling-stroke;" /><line x1="3376" y1="6528" x2="3376" y2="6560" style="stroke:rgb(211,115,115);stroke-width:1.5;vector-effect:non-scaling-stroke;" /><line x1="3376" y1="6560" x2="3376" y2="6592" style="stroke:rgb(211,115,115);stroke-width:1.5;vector-effect:non-scaling-stroke;" /><line x1="3248" y1="6208" x2="3216" y2="6208" style="stroke:rgb(211,115,115);stroke-width:1.5;vector-effect:non-scaling-stroke;" /><line x1="3408" y1="6208" x2="3376" y2="6208" style="stroke:rgb(211,115,115);stroke-width:1.5;vector-effect:non-scaling-stroke;" /><line x1="2864" y1="6976" x2="2864" y2="6784" style="stroke:rgb(255,255,255);stroke-width:1.5;vector-effect:non-scaling-stroke;" /><line x1="3664" y1="6784" x2="3664" y2="6976" style="stroke:rgb(255,127,27);stroke-width:1.5;vector-effect:non-scaling-stroke;" /><line x1="3792" y1="6784" x2="3856" y2="6784" style="stroke:rgb(211,115,115);stroke-width:1.5;vector-effect:non-scaling-stroke;" /><line x1="3856" y1="6784" x2="3856" y2="6976" style="stroke:rgb(211,115,115);stroke-width:1.5;vector-effect:non-scaling-stroke;" /><line x1="3856" y1="6976" x2="3792" y2="6976" style="stroke:rgb(211,115,115);stroke-width:1.5;vector-effect:non-scaling-stroke;" /><line x1="3792" y1="6784" x2="3792" y2="6976" style="stroke:rgb(255,187,147);stroke-width:1.5;vector-effect:non-scaling-stroke;" /><line x1="2832" y1="6976" x2="2672" y2="6976" style="stroke:rgb(211,115,115);stroke-width:1.5;vector-effect:non-scaling-stroke;" /><line x1="2672" y1="6976" x2="2672" y2="6784" style="stroke:rgb(211,115,115);stroke-width:1.5;vector-effect:non-scaling-stroke;" /><line x1="2672" y1="6784" x2="2832" y2="6784" style="stroke:rgb(211,115,115);stroke-width:1.5;vector-effect:non-scaling-stroke;" /><line x1="3536" y1="5824" x2="3536" y2="5888" style="stroke:rgb(211,115,115);stroke-width:1.5;vector-effect:non-scaling-stroke;" /><line x1="3536" y1="5696" x2="3536" y2="5728" style="stroke:rgb(211,115,115);stroke-width:1.5;vector-effect:non-scaling-stroke;" /><line x1="3088" y1="5728" x2="3088" y2="5696" style="stroke:rgb(211,115,115);stroke-width:1.5;vector-effect:non-scaling-stroke;" /><line x1="3088" y1="5888" x2="3088" y2="5824" style="stroke:rgb(211,115,115);stroke-width:1.5;vector-effect:non-scaling-stroke;" /><line x1="3376" y1="6592" x2="3248" y2="6592" style="stroke:rgb(255,187,147);stroke-width:1.5;vector-effect:non-scaling-stroke;" /><line x1="3376" y1="6560" x2="3248" y2="6560" style="stroke:rgb(255,187,147);stroke-width:1.5;vector-effect:non-scaling-stroke;" /><line x1="3376" y1="6528" x2="3248" y2="6528" style="stroke:rgb(255,187,147);stroke-width:1.5;vector-effect:non-scaling-stroke;" /><line x1="3376" y1="6496" x2="3248" y2="6496" style="stroke:rgb(255,187,147);stroke-width:1.5;vector-effect:non-scaling-stroke;" /><line x1="3376" y1="6464" x2="3248" y2="6464" style="stroke:rgb(255,187,147);stroke-width:1.5;vector-effect:non-scaling-stroke;" /><line x1="3376" y1="6432" x2="3248" y2="6432" style="stroke:rgb(255,187,147);stroke-width:1.5;vector-effect:non-scaling-stroke;" /><line x1="3376" y1="6400" x2="3248" y2="6400" style="stroke:rgb(255,187,147);stroke-width:1.5;vector-effect:non-scaling-stroke;" /><line x1="3376" y1="6368" x2="3248" y2="6368" style="stroke:rgb(255,187,147);stroke-width:1.5;vector-effect:non-scaling-stroke;" /><line x1="3376" y1="6336" x2="3248" y2="6336" style="stroke:rgb(255,187,147);stroke-width:1.5;vector-effect:non-scaling-stroke;" /><line x1="3376" y1="6304" x2="3248" y2="6304" style="stroke:rgb(255,187,147);stroke-width:1.5;vector-effect:non-scaling-stroke;" /><line x1="3376" y1="6272" x2="3248" y2="6272" style="stroke:rgb(255,187,147);stroke-width:1.5;vector-effect:non-scaling-stroke;" /><line x1="3376" y1="6240" x2="3248" y2="6240" style="stroke:rgb(255,187,147);stroke-width:1.5;vector-effect:non-scaling-stroke;" /><line x1="3376" y1="6208" x2="3248" y2="6208" style="stroke:rgb(255,187,147);stroke-width:1.5;vector-effect:non-scaling-stroke;" /><line x1="3536" y1="5728" x2="3536" y2="5824" style="stroke:rgb(255,187,147);stroke-width:1.5;vector-effect:non-scaling-stroke;" /><line x1="3088" y1="5824" x2="3088" y2="5728" style="stroke:rgb(255,187,147);stroke-width:1.5;vector-effect:non-scaling-stroke;" /><line x1="3056" y1="5696" x2="3056" y2="5728" style="stroke:rgb(211,115,115);stroke-width:1.5;vector-effect:non-scaling-stroke;" /><line x1="3056" y1="5728" x2="3088" y2="5728" style="stroke:rgb(211,115,115);stroke-width:1.5;vector-effect:non-scaling-stroke;" /><line x1="3056" y1="5824" x2="3056" y2="5888" style="stroke:rgb(211,115,115);stroke-width:1.5;vector-effect:non-scaling-stroke;" /><line x1="3088" y1="5824" x2="3056" y2="5824" style="stroke:rgb(211,115,115);stroke-width:1.5;vector-effect:non-scaling-stroke;" /><line x1="3536" y1="5728" x2="3568" y2="5728" style="stroke:rgb(211,115,115);stroke-width:1.5;vector-effect:non-scaling-stroke;" /><line x1="3568" y1="5728" x2="3568" y2="5696" style="stroke:rgb(211,115,115);stroke-width:1.5;vector-effect:non-scaling-stroke;" /><line x1="3568" y1="5824" x2="3536" y2="5824" style="stroke:rgb(211,115,115);stroke-width:1.5;vector-effect:non-scaling-stroke;" /><line x1="3568" y1="5888" x2="3568" y2="5824" style="stroke:rgb(211,115,115);stroke-width:1.5;vector-effect:non-scaling-stroke;" /><line x1="3088" y1="5696" x2="3152" y2="5696" style="stroke:rgb(211,115,115);stroke-width:1.5;vector-effect:non-scaling-stroke;" /><line x1="3152" y1="5696" x2="3152" y2="5632" style="stroke:rgb(211,115,115);stroke-width:1.5;vector-effect:non-scaling-stroke;" /><line x1="3152" y1="5632" x2="3216" y2="5632" style="stroke:rgb(211,115,115);stroke-width:1.5;vector-effect:non-scaling-stroke;" /><line x1="3216" y1="5632" x2="3216" y2="5568" style="stroke:rgb(211,115,115);stroke-width:1.5;vector-effect:non-scaling-stroke;" /><line x1="3408" y1="5568" x2="3408" y2="5632" style="stroke:rgb(211,115,115);stroke-width:1.5;vector-effect:non-scaling-stroke;" /><line x1="3408" y1="5632" x2="3472" y2="5632" style="stroke:rgb(211,115,115);stroke-width:1.5;vector-effect:non-scaling-stroke;" /><line x1="3472" y1="5632" x2="3472" y2="5696" style="stroke:rgb(211,115,115);stroke-width:1.5;vector-effect:non-scaling-stroke;" /><line x1="3472" y1="5696" x2="3536" y2="5696" style="stroke:rgb(211,115,115);stroke-width:1.5;vector-effect:non-scaling-stroke;" /><line x1="3536" y1="5888" x2="3472" y2="5888" style="stroke:rgb(211,115,115);stroke-width:1.5;vector-effect:non-scaling-stroke;" /><line x1="3472" y1="5888" x2="3472" y2="5952" style="stroke:rgb(211,115,115);stroke-width:1.5;vector-effect:non-scaling-stroke;" /><line x1="3472" y1="5952" x2="3408" y2="5952" style="stroke:rgb(211,115,115);stroke-width:1.5;vector-effect:non-scaling-stroke;" /><line x1="3216" y1="5952" x2="3152" y2="5952" style="stroke:rgb(211,115,115);stroke-width:1.5;vector-effect:non-scaling-stroke;" /><line x1="3152" y1="5952" x2="3152" y2="5888" style="stroke:rgb(211,115,115);stroke-width:1.5;vector-effect:non-scaling-stroke;" /><line x1="3152" y1="5888" x2="3088" y2="5888" style="stroke:rgb(211,115,115);stroke-width:1.5;vector-effect:non-scaling-stroke;" /><line x1="3216" y1="5888" x2="3152" y2="5888" style="stroke:rgb(255,187,147);stroke-width:1.5;vector-effect:non-scaling-stroke;" /><line x1="3216" y1="5952" x2="3216" y2="5888" style="stroke:rgb(255,187,147);stroke-width:1.5;vector-effect:non-scaling-stroke;" /><line x1="3408" y1="5888" x2="3408" y2="5952" style="stroke:rgb(255,187,147);stroke-width:1.5;vector-effect:non-scaling-stroke;" /><line x1="3472" y1="5888" x2="3408" y2="5888" style="stroke:rgb(255,187,147);stroke-width:1.5;vector-effect:non-scaling-stroke;" /><line x1="3408" y1="5632" x2="3408" y2="5696" style="stroke:rgb(255,187,147);stroke-width:1.5;vector-effect:non-scaling-stroke;" /><line x1="3408" y1="5696" x2="3472" y2="5696" style="stroke:rgb(255,187,147);stroke-width:1.5;vector-effect:non-scaling-stroke;" /><line x1="3152" y1="5696" x2="3216" y2="5696" style="stroke:rgb(255,187,147);stroke-width:1.5;vector-effect:non-scaling-stroke;" /><line x1="3216" y1="5696" x2="3216" y2="5632" style="stroke:rgb(255,187,147);stroke-width:1.5;vector-effect:non-scaling-stroke;" /><line x1="3216" y1="5056" x2="3216" y2="4224" style="stroke:rgb(211,115,115);stroke-width:1.5;vector-effect:non-scaling-stroke;" /><line x1="3408" y1="4224" x2="3408" y2="5056" style="stroke:rgb(211,115,115);stroke-width:1.5;vector-effect:non-scaling-stroke;" /><line x1="2608" y1="4608" x2="2880" y2="3768" style="stroke:rgb(211,115,115);stroke-width:1.5;vector-effect:non-scaling-stroke;" /><line x1="2880" y1="3768" x2="2224" y2="3264" style="stroke:rgb(211,115,115);stroke-width:1.5;vector-effect:non-scaling-stroke;" /><line x1="2224" y1="3264" x2="3056" y2="3264" style="stroke:rgb(211,115,115);stroke-width:1.5;vector-effect:non-scaling-stroke;" /><line x1="3312" y1="2488" x2="3568" y2="3264" style="stroke:rgb(211,115,115);stroke-width:1.5;vector-effect:non-scaling-stroke;" /><line x1="3568" y1="3264" x2="4400" y2="3264" style="stroke:rgb(211,115,115);stroke-width:1.5;vector-effect:non-scaling-stroke;" /><line x1="4400" y1="3264" x2="3736" y2="3768" style="stroke:rgb(211,115,115);stroke-width:1.5;vector-effect:non-scaling-stroke;" /><line x1="3024" y1="5248" x2="3216" y2="5056" style="stroke:rgb(211,115,115);stroke-width:1.5;vector-effect:non-scaling-stroke;" /><line x1="3408" y1="5056" x2="3600" y2="5248" style="stroke:rgb(211,115,115);stroke-width:1.5;vector-effect:non-scaling-stroke;" /><line x1="3216" y1="5568" x2="3408" y2="5568" style="stroke:rgb(255,187,147);stroke-width:1.5;vector-effect:non-scaling-stroke;" /><line x1="3408" y1="5952" x2="3408" y2="6016" style="stroke:rgb(211,115,115);stroke-width:1.5;vector-effect:non-scaling-stroke;" /><line x1="3408" y1="6016" x2="3376" y2="6016" style="stroke:rgb(211,115,115);stroke-width:1.5;vector-effect:non-scaling-stroke;" /><line x1="3376" y1="6016" x2="3376" y2="6032" style="stroke:rgb(211,115,115);stroke-width:1.5;vector-effect:non-scaling-stroke;" /><line x1="3376" y1="6032" x2="3376" y2="6048" style="stroke:rgb(255,255,255);stroke-width:1.5;vector-effect:non-scaling-stroke;" /><line x1="3376" y1="6048" x2="3376" y2="6064" style="stroke:rgb(211,115,115);stroke-width:1.5;vector-effect:non-scaling-stroke;" /><line x1="3376" y1="6064" x2="3408" y2="6064" style="stroke:rgb(211,115,115);stroke-width:1.5;vector-effect:non-scaling-stroke;" /><line x1="3408" y1="6064" x2="3408" y2="6208" style="stroke:rgb(211,115,115);stroke-width:1.5;vector-effect:non-scaling-stroke;" /><line x1="3216" y1="6208" x2="3216" y2="6064" style="stroke:rgb(211,115,115);stroke-width:1.5;vector-effect:non-scaling-stroke;" /><line x1="3216" y1="6064" x2="3248" y2="6064" style="stroke:rgb(211,115,115);stroke-width:1.5;vector-effect:non-scaling-stroke;" /><line x1="3248" y1="6064" x2="3248" y2="6048" style="stroke:rgb(211,115,115);stroke-width:1.5;vector-effect:non-scaling-stroke;" /><line x1="3248" y1="6048" x2="3248" y2="6032" style="stroke:rgb(255,255,255);stroke-width:1.5;vector-effect:non-scaling-stroke;" /><line x1="3248" y1="6032" x2="3248" y2="6016" style="stroke:rgb(211,115,115);stroke-width:1.5;vector-effect:non-scaling-stroke;" /><line x1="3248" y1="6016" x2="3216" y2="6016" style="stroke:rgb(211,115,115);stroke-width:1.5;vector-effect:non-scaling-stroke;" /><line x1="3216" y1="6016" x2="3216" y2="5952" style="stroke:rgb(211,115,115);stroke-width:1.5;vector-effect:non-scaling-stroke;" /><line x1="3248" y1="6048" x2="3376" y2="6048" style="stroke:rgb(255,255,255);stroke-width:1.5;vector-effect:non-scaling-stroke;" /><line x1="3376" y1="6032" x2="3248" y2="6032" style="stroke:rgb(255,255,255);stroke-width:1.5;vector-effect:non-scaling-stroke;" /><line x1="3376" y1="6016" x2="3248" y2="6016" style="stroke:rgb(255,127,27);stroke-width:1.5;vector-effect:non-scaling-stroke;" /><line x1="3248" y1="6064" x2="3376" y2="6064" style="stroke:rgb(255,127,27);stroke-width:1.5;vector-effect:non-scaling-stroke;" /><line x1="3056" y1="3264" x2="3312" y2="2488" style="stroke:rgb(211,115,115);stroke-width:1.5;vector-effect:non-scaling-stroke;" /><line x1="3376" y1="6240" x2="3384" y2="6240" style="stroke:rgb(255,255,255);stroke-width:1.5;vector-effect:non-scaling-stroke;" /><line x1="3384" y1="6304" x2="3376" y2="6304" style="stroke:rgb(255,255,255);stroke-width:1.5;vector-effect:non-scaling-stroke;" /><line x1="3384" y1="6304" x2="3384" y2="6240" style="stroke:rgb(211,115,115);stroke-width:1.5;vector-effect:non-scaling-stroke;" /><line x1="3384" y1="6240" x2="3440" y2="6240" style="stroke:rgb(207,0,207);stroke-width:1.5;vector-effect:non-scaling-stroke;" /><line x1="3440" y1="6240" x2="3440" y2="6304" style="stroke:rgb(207,0,207);stroke-width:1.5;vector-effect:non-scaling-stroke;" /><line x1="3440" y1="6304" x2="3384" y2="6304" style="stroke:rgb(207,0,207);stroke-width:1.5;vector-effect:non-scaling-stroke;" /><line x1="3376" y1="6272" x2="3376" y2="6304" style="stroke:rgb(211,115,115);stroke-width:1.5;vector-effect:non-scaling-stroke;" /><line x1="2832" y1="6848" x2="2832" y2="6912" style="stroke:rgb(255,255,255);stroke-width:1.5;vector-effect:non-scaling-stroke;" /><line x1="2832" y1="6784" x2="2832" y2="6848" style="stroke:rgb(255,255,255);stroke-width:1.5;vector-effect:non-scaling-stroke;" /><line x1="2832" y1="6912" x2="2832" y2="6976" style="stroke:rgb(255,255,255);stroke-width:1.5;vector-effect:non-scaling-stroke;" /><line x1="2864" y1="6784" x2="2896" y2="6784" style="stroke:rgb(211,115,115);stroke-width:1.5;vector-effect:non-scaling-stroke;" /><line x1="2896" y1="6784" x2="2928" y2="6784" style="stroke:rgb(211,115,115);stroke-width:1.5;vector-effect:non-scaling-stroke;" /><line x1="2928" y1="6784" x2="2960" y2="6784" style="stroke:rgb(211,115,115);stroke-width:1.5;vector-effect:non-scaling-stroke;" /><line x1="2960" y1="6976" x2="2928" y2="6976" style="stroke:rgb(211,115,115);stroke-width:1.5;vector-effect:non-scaling-stroke;" /><line x1="2928" y1="6976" x2="2896" y2="6976" style="stroke:rgb(211,115,115);stroke-width:1.5;vector-effect:non-scaling-stroke;" /><line x1="2896" y1="6976" x2="2864" y2="6976" style="stroke:rgb(211,115,115);stroke-width:1.5;vector-effect:non-scaling-stroke;" /><line x1="2960" y1="6976" x2="2960" y2="6784" style="stroke:rgb(255,187,147);stroke-width:1.5;vector-effect:non-scaling-stroke;" /><line x1="2928" y1="6976" x2="2928" y2="6784" style="stroke:rgb(255,187,147);stroke-width:1.5;vector-effect:non-scaling-stroke;" /><line x1="2896" y1="6976" x2="2896" y2="6784" style="stroke:rgb(255,187,147);stroke-width:1.5;vector-effect:non-scaling-stroke;" /><line x1="2960" y1="5568" x2="3056" y2="5696" style="stroke:rgb(211,115,115);stroke-width:1.5;vector-effect:non-scaling-stroke;" /><line x1="2824" y1="5568" x2="2960" y2="5568" style="stroke:rgb(211,115,115);stroke-width:1.5;vector-effect:non-scaling-stroke;" /><line x1="2704" y1="5696" x2="2824" y2="5568" style="stroke:rgb(211,115,115);stroke-width:1.5;vector-effect:non-scaling-stroke;" /><line x1="2704" y1="5888" x2="2704" y2="5696" style="stroke:rgb(211,115,115);stroke-width:1.5;vector-effect:non-scaling-stroke;" /><line x1="2832" y1="6016" x2="2704" y2="5888" style="stroke:rgb(211,115,115);stroke-width:1.5;vector-effect:non-scaling-stroke;" /><line x1="2960" y1="6016" x2="2832" y2="6016" style="stroke:rgb(211,115,115);stroke-width:1.5;vector-effect:non-scaling-stroke;" /><line x1="3056" y1="5888" x2="2960" y2="6016" style="stroke:rgb(211,115,115);stroke-width:1.5;vector-effect:non-scaling-stroke;" /><line x1="3568" y1="5696" x2="3664" y2="5568" style="stroke:rgb(211,115,115);stroke-width:1.5;vector-effect:non-scaling-stroke;" /><line x1="3664" y1="5568" x2="3792" y2="5568" style="stroke:rgb(211,115,115);stroke-width:1.5;vector-effect:non-scaling-stroke;" /><line x1="3792" y1="5568" x2="3920" y2="5696" style="stroke:rgb(211,115,115);stroke-width:1.5;vector-effect:non-scaling-stroke;" /><line x1="3920" y1="5696" x2="3920" y2="5888" style="stroke:rgb(211,115,115);stroke-width:1.5;vector-effect:non-scaling-stroke;" /><line x1="3920" y1="5888" x2="3792" y2="6016" style="stroke:rgb(211,115,115);stroke-width:1.5;vector-effect:non-scaling-stroke;" /><line x1="3792" y1="6016" x2="3664" y2="6016" style="stroke:rgb(211,115,115);stroke-width:1.5;vector-effect:non-scaling-stroke;" /><line x1="3664" y1="6016" x2="3568" y2="5888" style="stroke:rgb(211,115,115);stroke-width:1.5;vector-effect:non-scaling-stroke;" /><line x1="3024" y1="5248" x2="2136" y2="5912" style="stroke:rgb(211,115,115);stroke-width:1.5;vector-effect:non-scaling-stroke;" /><line x1="2136" y1="5912" x2="0" y2="4864" style="stroke:rgb(211,115,115);stroke-width:1.5;vector-effect:non-scaling-stroke;" /><line x1="0" y1="4864" x2="1280" y2="608" style="stroke:rgb(211,115,115);stroke-width:1.5;vector-effect:non-scaling-stroke;" /><line x1="1280" y1="608" x2="5168" y2="608" style="stroke:rgb(211,115,115);stroke-width:1.5;vector-effect:non-scaling-stroke;" /><line x1="5168" y1="608" x2="6616" y2="4928" style="stroke:rgb(211,115,115);stroke-width:1.5;vector-effect:non-scaling-stroke;" /><line x1="6616" y1="4928" x2="4376" y2="5912" style="stroke:rgb(211,115,115);stroke-width:1.5;vector-effect:non-scaling-stroke;" /><line x1="4376" y1="5912" x2="3600" y2="5248" style="stroke:rgb(211,115,115);stroke-width:1.5;vector-effect:non-scaling-stroke;" /><line x1="3216" y1="4224" x2="3216" y2="4160" style="stroke:rgb(211,115,115);stroke-width:1.5;vector-effect:non-scaling-stroke;" /><line x1="3408" y1="4160" x2="3408" y2="4224" style="stroke:rgb(211,115,115);stroke-width:1.5;vector-effect:non-scaling-stroke;" /><line x1="3408" y1="4160" x2="3216" y2="4160" style="stroke:rgb(183,183,183);stroke-width:1.5;vector-effect:non-scaling-stroke;" /><line x1="3344" y1="4224" x2="3408" y2="4224" style="stroke:rgb(255,187,147);stroke-width:1.5;vector-effect:non-scaling-stroke;" /><line x1="4016" y1="4608" x2="3408" y2="4160" style="stroke:rgb(211,115,115);stroke-width:1.5;vector-effect:non-scaling-stroke;" /><line x1="3736" y1="3768" x2="4016" y2="4608" style="stroke:rgb(211,115,115);stroke-width:1.5;vector-effect:non-scaling-stroke;" /><line x1="3216" y1="4160" x2="2608" y2="4608" style="stroke:rgb(211,115,115);stroke-width:1.5;vector-effect:non-scaling-stroke;" /><line x1="3144" y1="3856" x2="3168" y2="3856" style="stroke:rgb(211,115,115);stroke-width:1.5;vector-effect:non-scaling-stroke;" /><line x1="3168" y1="3856" x2="3168" y2="3832" style="stroke:rgb(211,115,115);stroke-width:1.5;vector-effect:non-scaling-stroke;" /><line x1="3168" y1="3832" x2="3168" y2="3824" style="stroke:rgb(255,255,255);stroke-width:1.5;vector-effect:non-scaling-stroke;" /><line x1="3168" y1="3824" x2="3168" y2="3744" style="stroke:rgb(211,115,115);stroke-width:1.5;vector-effect:non-scaling-stroke;" /><line x1="3168" y1="3744" x2="3232" y2="3744" style="stroke:rgb(211,115,115);stroke-width:1.5;vector-effect:non-scaling-stroke;" /><line x1="3232" y1="3744" x2="3232" y2="3824" style="stroke:rgb(211,115,115);stroke-width:1.5;vector-effect:non-scaling-stroke;" /><line x1="3232" y1="3824" x2="3232" y2="3832" style="stroke:rgb(255,255,255);stroke-width:1.5;vector-effect:non-scaling-stroke;" /><line x1="3232" y1="3832" x2="3232" y2="3856" style="stroke:rgb(211,115,115);stroke-width:1.5;vector-effect:non-scaling-stroke;" /><line x1="3232" y1="3856" x2="3256" y2="3856" style="stroke:rgb(211,115,115);stroke-width:1.5;vector-effect:non-scaling-stroke;" /><line x1="3256" y1="3856" x2="3272" y2="3776" style="stroke:rgb(211,115,115);stroke-width:1.5;vector-effect:non-scaling-stroke;" /><line x1="3272" y1="3776" x2="3232" y2="3712" style="stroke:rgb(211,115,115);stroke-width:1.5;vector-effect:non-scaling-stroke;" /><line x1="3232" y1="3712" x2="3168" y2="3712" style="stroke:rgb(211,115,115);stroke-width:1.5;vector-effect:non-scaling-stroke;" /><line x1="3168" y1="3712" x2="3104" y2="3776" style="stroke:rgb(211,115,115);stroke-width:1.5;vector-effect:non-scaling-stroke;" /><line x1="3104" y1="3776" x2="3144" y2="3856" style="stroke:rgb(211,115,115);stroke-width:1.5;vector-effect:non-scaling-stroke;" /><line x1="3168" y1="3856" x2="3232" y2="3856" style="stroke:rgb(255,187,147);stroke-width:1.5;vector-effect:non-scaling-stroke;" /><line x1="3168" y1="3832" x2="3232" y2="3832" style="stroke:rgb(255,255,255);stroke-width:1.5;vector-effect:non-scaling-stroke;" /><line x1="3232" y1="3824" x2="3168" y2="3824" style="stroke:rgb(255,255,255);stroke-width:1.5;vector-effect:non-scaling-stroke;" /><line x1="3144" y1="3856" x2="3144" y2="3904" style="stroke:rgb(255,187,147);stroke-width:1.5;vector-effect:non-scaling-stroke;" /><line x1="3144" y1="3904" x2="3256" y2="3904" style="stroke:rgb(255,187,147);stroke-width:1.5;vector-effect:non-scaling-stroke;" /><line x1="3256" y1="3904" x2="3256" y2="3856" style="stroke:rgb(255,187,147);stroke-width:1.5;vector-effect:non-scaling-stroke;" /><line x1="3144" y1="3904" x2="3088" y2="3968" style="stroke:rgb(255,187,147);stroke-width:1.5;vector-effect:non-scaling-stroke;" /><line x1="3088" y1="3968" x2="3088" y2="4032" style="stroke:rgb(255,187,147);stroke-width:1.5;vector-effect:non-scaling-stroke;" /><line x1="3088" y1="4032" x2="3216" y2="4160" style="stroke:rgb(255,187,147);stroke-width:1.5;vector-effect:non-scaling-stroke;" /><line x1="3368" y1="3856" x2="3392" y2="3856" style="stroke:rgb(211,115,115);stroke-width:1.5;vector-effect:non-scaling-stroke;" /><line x1="3392" y1="3856" x2="3392" y2="3832" style="stroke:rgb(211,115,115);stroke-width:1.5;vector-effect:non-scaling-stroke;" /><line x1="3392" y1="3832" x2="3392" y2="3824" style="stroke:rgb(255,255,255);stroke-width:1.5;vector-effect:non-scaling-stroke;" /><line x1="3392" y1="3824" x2="3392" y2="3744" style="stroke:rgb(211,115,115);stroke-width:1.5;vector-effect:non-scaling-stroke;" /><line x1="3392" y1="3744" x2="3456" y2="3744" style="stroke:rgb(211,115,115);stroke-width:1.5;vector-effect:non-scaling-stroke;" /><line x1="3456" y1="3744" x2="3456" y2="3824" style="stroke:rgb(211,115,115);stroke-width:1.5;vector-effect:non-scaling-stroke;" /><line x1="3456" y1="3824" x2="3456" y2="3832" style="stroke:rgb(255,255,255);stroke-width:1.5;vector-effect:non-scaling-stroke;" /><line x1="3456" y1="3832" x2="3456" y2="3856" style="stroke:rgb(211,115,115);stroke-width:1.5;vector-effect:non-scaling-stroke;" /><line x1="3456" y1="3856" x2="3480" y2="3856" style="stroke:rgb(211,115,115);stroke-width:1.5;vector-effect:non-scaling-stroke;" /><line x1="3480" y1="3856" x2="3520" y2="3776" style="stroke:rgb(211,115,115);stroke-width:1.5;vector-effect:non-scaling-stroke;" /><line x1="3520" y1="3776" x2="3456" y2="3712" style="stroke:rgb(211,115,115);stroke-width:1.5;vector-effect:non-scaling-stroke;" /><line x1="3456" y1="3712" x2="3392" y2="3712" style="stroke:rgb(211,115,115);stroke-width:1.5;vector-effect:non-scaling-stroke;" /><line x1="3392" y1="3712" x2="3352" y2="3776" style="stroke:rgb(211,115,115);stroke-width:1.5;vector-effect:non-scaling-stroke;" /><line x1="3352" y1="3776" x2="3368" y2="3856" style="stroke:rgb(211,115,115);stroke-width:1.5;vector-effect:non-scaling-stroke;" /><line x1="3392" y1="3856" x2="3456" y2="3856" style="stroke:rgb(255,187,147);stroke-width:1.5;vector-effect:non-scaling-stroke;" /><line x1="3392" y1="3832" x2="3456" y2="3832" style="stroke:rgb(255,255,255);stroke-width:1.5;vector-effect:non-scaling-stroke;" /><line x1="3456" y1="3824" x2="3392" y2="3824" style="stroke:rgb(255,255,255);stroke-width:1.5;vector-effect:non-scaling-stroke;" /><line x1="3368" y1="3856" x2="3368" y2="3904" style="stroke:rgb(255,187,147);stroke-width:1.5;vector-effect:non-scaling-stroke;" /><line x1="3368" y1="3904" x2="3480" y2="3904" style="stroke:rgb(255,187,147);stroke-width:1.5;vector-effect:non-scaling-stroke;" /><line x1="3480" y1="3904" x2="3480" y2="3856" style="stroke:rgb(255,187,147);stroke-width:1.5;vector-effect:non-scaling-stroke;" /><line x1="3312" y1="3944" x2="3256" y2="3904" style="stroke:rgb(255,187,147);stroke-width:1.5;vector-effect:non-scaling-stroke;" /><line x1="3088" y1="3968" x2="3536" y2="3968" style="stroke:rgb(255,187,147);stroke-width:1.5;vector-effect:non-scaling-stroke;" /><line x1="3536" y1="3968" x2="3480" y2="3904" style="stroke:rgb(255,187,147);stroke-width:1.5;vector-effect:non-scaling-stroke;" /><line x1="3088" y1="4032" x2="3536" y2="4032" style="stroke:rgb(255,187,147);stroke-width:1.5;vector-effect:non-scaling-stroke;" /><line x1="3536" y1="4032" x2="3536" y2="3968" style="stroke:rgb(255,187,147);stroke-width:1.5;vector-effect:non-scaling-stroke;" /><line x1="3408" y1="4160" x2="3536" y2="4032" style="stroke:rgb(255,187,147);stroke-width:1.5;vector-effect:non-scaling-stroke;" /><line x1="3216" y1="4224" x2="3280" y2="4224" style="stroke:rgb(255,187,147);stroke-width:1.5;vector-effect:non-scaling-stroke;" /><line x1="3280" y1="4224" x2="3344" y2="4224" style="stroke:rgb(255,187,147);stroke-width:1.5;vector-effect:non-scaling-stroke;" /><line x1="3368" y1="3904" x2="3312" y2="3944" style="stroke:rgb(255,187,147);stroke-width:1.5;vector-effect:non-scaling-stroke;" /><line x1="3184" y1="2240" x2="3248" y2="2240" style="stroke:rgb(255,187,147);stroke-width:1.5;vector-effect:non-scaling-stroke;" /><line x1="3248" y1="2240" x2="3248" y2="2208" style="stroke:rgb(255,187,147);stroke-width:1.5;vector-effect:non-scaling-stroke;" /><line x1="3248" y1="2208" x2="3248" y2="2176" style="stroke:rgb(255,187,147);stroke-width:1.5;vector-effect:non-scaling-stroke;" /><line x1="3248" y1="2176" x2="3248" y2="2144" style="stroke:rgb(255,187,147);stroke-width:1.5;vector-effect:non-scaling-stroke;" /><line x1="3248" y1="2144" x2="3248" y2="2112" style="stroke:rgb(255,187,147);stroke-width:1.5;vector-effect:non-scaling-stroke;" /><line x1="3248" y1="2112" x2="3248" y2="2080" style="stroke:rgb(255,187,147);stroke-width:1.5;vector-effect:non-scaling-stroke;" /><line x1="3248" y1="2080" x2="3248" y2="2048" style="stroke:rgb(255,187,147);stroke-width:1.5;vector-effect:non-scaling-stroke;" /><line x1="3248" y1="2048" x2="3248" y2="2016" style="stroke:rgb(255,187,147);stroke-width:1.5;vector-effect:non-scaling-stroke;" /><line x1="3248" y1="2016" x2="3248" y2="1984" style="stroke:rgb(255,187,147);stroke-width:1.5;vector-effect:non-scaling-stroke;" /><line x1="3248" y1="1984" x2="3248" y2="1952" style="stroke:rgb(255,187,147);stroke-width:1.5;vector-effect:non-scaling-stroke;" /><line x1="3248" y1="1952" x2="3248" y2="1920" style="stroke:rgb(255,187,147);stroke-width:1.5;vector-effect:non-scaling-stroke;" /><line x1="3248" y1="1920" x2="3248" y2="1888" style="stroke:rgb(255,187,147);stroke-width:1.5;vector-effect:non-scaling-stroke;" /><line x1="3248" y1="1888" x2="3248" y2="1856" style="stroke:rgb(255,187,147);stroke-width:1.5;vector-effect:non-scaling-stroke;" /><line x1="3184" y1="1408" x2="3184" y2="2240" style="stroke:rgb(255,187,147);stroke-width:1.5;vector-effect:non-scaling-stroke;" /><line x1="3440" y1="2240" x2="3504" y2="2240" style="stroke:rgb(255,187,147);stroke-width:1.5;vector-effect:non-scaling-stroke;" /><line x1="3504" y1="2240" x2="3504" y2="1408" style="stroke:rgb(255,187,147);stroke-width:1.5;vector-effect:non-scaling-stroke;" /><line x1="3440" y1="1856" x2="3440" y2="1888" style="stroke:rgb(255,187,147);stroke-width:1.5;vector-effect:non-scaling-stroke;" /><line x1="3440" y1="1888" x2="3440" y2="1920" style="stroke:rgb(255,187,147);stroke-width:1.5;vector-effect:non-scaling-stroke;" /><line x1="3440" y1="1920" x2="3440" y2="1952" style="stroke:rgb(255,187,147);stroke-width:1.5;vector-effect:non-scaling-stroke;" /><line x1="3440" y1="1952" x2="3440" y2="1984" style="stroke:rgb(255,187,147);stroke-width:1.5;vector-effect:non-scaling-stroke;" /><line x1="3440" y1="1984" x2="3440" y2="2016" style="stroke:rgb(255,187,147);stroke-width:1.5;vector-effect:non-scaling-stroke;" /><line x1="3440" y1="2016" x2="3440" y2="2048" style="stroke:rgb(255,187,147);stroke-width:1.5;vector-effect:non-scaling-stroke;" /><line x1="3440" y1="2048" x2="3440" y2="2080" style="stroke:rgb(255,187,147);stroke-width:1.5;vector-effect:non-scaling-stroke;" /><line x1="3440" y1="2080" x2="3440" y2="2112" style="stroke:rgb(255,187,147);stroke-width:1.5;vector-effect:non-scaling-stroke;" /><line x1="3440" y1="2112" x2="3440" y2="2144" style="stroke:rgb(255,187,147);stroke-width:1.5;vector-effect:non-scaling-stroke;" /><line x1="3440" y1="2144" x2="3440" y2="2176" style="stroke:rgb(255,187,147);stroke-width:1.5;vector-effect:non-scaling-stroke;" /><line x1="3440" y1="2176" x2="3440" y2="2208" style="stroke:rgb(255,187,147);stroke-width:1.5;vector-effect:non-scaling-stroke;" /><line x1="3440" y1="2208" x2="3440" y2="2240" style="stroke:rgb(255,187,147);stroke-width:1.5;vector-effect:non-scaling-stroke;" /><line x1="3248" y1="2240" x2="3440" y2="2240" style="stroke:rgb(183,183,183);stroke-width:1.5;vector-effect:non-scaling-stroke;" /><line x1="3248" y1="2208" x2="3440" y2="2208" style="stroke:rgb(183,183,183);stroke-width:1.5;vector-effect:non-scaling-stroke;" /><line x1="3248" y1="2176" x2="3440" y2="2176" style="stroke:rgb(183,183,183);stroke-width:1.5;vector-effect:non-scaling-stroke;" /><line x1="3248" y1="2144" x2="3440" y2="2144" style="stroke:rgb(183,183,183);stroke-width:1.5;vector-effect:non-scaling-stroke;" /><line x1="3248" y1="2112" x2="3440" y2="2112" style="stroke:rgb(183,183,183);stroke-width:1.5;vector-effect:non-scaling-stroke;" /><line x1="3248" y1="2080" x2="3440" y2="2080" style="stroke:rgb(183,183,183);stroke-width:1.5;vector-effect:non-scaling-stroke;" /><line x1="3248" y1="2048" x2="3440" y2="2048" style="stroke:rgb(183,183,183);stroke-width:1.5;vector-effect:non-scaling-stroke;" /><line x1="3248" y1="2016" x2="3440" y2="2016" style="stroke:rgb(183,183,183);stroke-width:1.5;vector-effect:non-scaling-stroke;" /><line x1="3248" y1="1984" x2="3440" y2="1984" style="stroke:rgb(183,183,183);stroke-width:1.5;vector-effect:non-scaling-stroke;" /><line x1="3248" y1="1952" x2="3440" y2="1952" style="stroke:rgb(183,183,183);stroke-width:1.5;vector-effect:non-scaling-stroke;" /><line x1="3248" y1="1920" x2="3440" y2="1920" style="stroke:rgb(183,183,183);stroke-width:1.5;vector-effect:non-scaling-stroke;" /><line x1="3248" y1="1888" x2="3440" y2="1888" style="stroke:rgb(183,183,183);stroke-width:1.5;vector-effect:non-scaling-stroke;" /><line x1="3248" y1="1856" x2="3440" y2="1856" style="stroke:rgb(183,183,183);stroke-width:1.5;vector-effect:non-scaling-stroke;" /><line x1="3504" y1="1408" x2="3184" y2="1408" style="stroke:rgb(255,187,147);stroke-width:1.5;vector-effect:non-scaling-stroke;" /><line x1="3248" y1="1856" x2="3248" y2="1824" style="stroke:rgb(255,187,147);stroke-width:1.5;vector-effect:non-scaling-stroke;" /><line x1="3248" y1="1824" x2="3440" y2="1824" style="stroke:rgb(183,183,183);stroke-width:1.5;vector-effect:non-scaling-stroke;" /><line x1="3440" y1="1824" x2="3440" y2="1856" style="stroke:rgb(255,187,147);stroke-width:1.5;vector-effect:non-scaling-stroke;" /><line x1="3248" y1="1824" x2="3248" y2="1792" style="stroke:rgb(255,187,147);stroke-width:1.5;vector-effect:non-scaling-stroke;" /><line x1="3248" y1="1792" x2="3440" y2="1792" style="stroke:rgb(255,187,147);stroke-width:1.5;vector-effect:non-scaling-stroke;" /><line x1="3440" y1="1792" x2="3440" y2="1824" style="stroke:rgb(255,187,147);stroke-width:1.5;vector-effect:non-scaling-stroke;" /><line x1="3152" y1="4264" x2="3152" y2="5056" style="stroke:rgb(255,255,255);stroke-width:1.5;vector-effect:non-scaling-stroke;" /><line x1="3152" y1="5056" x2="3024" y2="5248" style="stroke:rgb(255,255,255);stroke-width:1.5;vector-effect:non-scaling-stroke;" /><line x1="2544" y1="4704" x2="3152" y2="4264" style="stroke:rgb(255,255,255);stroke-width:1.5;vector-effect:non-scaling-stroke;" /><line x1="2832" y1="3776" x2="2544" y2="4704" style="stroke:rgb(255,255,255);stroke-width:1.5;vector-effect:non-scaling-stroke;" /><line x1="2112" y1="3224" x2="2832" y2="3776" style="stroke:rgb(255,255,255);stroke-width:1.5;vector-effect:non-scaling-stroke;" /><line x1="3024" y1="3224" x2="2112" y2="3224" style="stroke:rgb(255,255,255);stroke-width:1.5;vector-effect:non-scaling-stroke;" /><line x1="3312" y1="2416" x2="3024" y2="3224" style="stroke:rgb(255,255,255);stroke-width:1.5;vector-effect:non-scaling-stroke;" /><line x1="3600" y1="3224" x2="3312" y2="2416" style="stroke:rgb(255,255,255);stroke-width:1.5;vector-effect:non-scaling-stroke;" /><line x1="4496" y1="3224" x2="3600" y2="3224" style="stroke:rgb(255,255,255);stroke-width:1.5;vector-effect:non-scaling-stroke;" /><line x1="3792" y1="3776" x2="4496" y2="3224" style="stroke:rgb(255,255,255);stroke-width:1.5;vector-effect:non-scaling-stroke;" /><line x1="4080" y1="4704" x2="3792" y2="3776" style="stroke:rgb(255,255,255);stroke-width:1.5;vector-effect:non-scaling-stroke;" /><line x1="3472" y1="4264" x2="4080" y2="4704" style="stroke:rgb(255,255,255);stroke-width:1.5;vector-effect:non-scaling-stroke;" /><line x1="3472" y1="5056" x2="3472" y2="4264" style="stroke:rgb(255,255,255);stroke-width:1.5;vector-effect:non-scaling-stroke;" /><line x1="3600" y1="5248" x2="3472" y2="5056" style="stroke:rgb(255,255,255);stroke-width:1.5;vector-effect:non-scaling-stroke;" /><line x1="3600" y1="5248" x2="3408" y2="5544" style="stroke:rgb(211,115,115);stroke-width:1.5;vector-effect:non-scaling-stroke;" /><line x1="3408" y1="5544" x2="3408" y2="5568" style="stroke:rgb(211,115,115);stroke-width:1.5;vector-effect:non-scaling-stroke;" /><line x1="3216" y1="5568" x2="3216" y2="5544" style="stroke:rgb(211,115,115);stroke-width:1.5;vector-effect:non-scaling-stroke;" /><line x1="3216" y1="5544" x2="3024" y2="5248" style="stroke:rgb(211,115,115);stroke-width:1.5;vector-effect:non-scaling-stroke;" /><line x1="3280" y1="1600" x2="3344" y2="1600" style="stroke:rgb(255,187,147);stroke-width:1.5;vector-effect:non-scaling-stroke;" /><line x1="3344" y1="1600" x2="3408" y2="1600" style="stroke:rgb(255,187,147);stroke-width:1.5;vector-effect:non-scaling-stroke;" /><line x1="3408" y1="1600" x2="3408" y2="1536" style="stroke:rgb(255,187,147);stroke-width:1.5;vector-effect:non-scaling-stroke;" /><line x1="3408" y1="1536" x2="3408" y2="1472" style="stroke:rgb(255,187,147);stroke-width:1.5;vector-effect:non-scaling-stroke;" /><line x1="3408" y1="1472" x2="3344" y2="1472" style="stroke:rgb(255,187,147);stroke-width:1.5;vector-effect:non-scaling-stroke;" /><line x1="3344" y1="1472" x2="3280" y2="1472" style="stroke:rgb(255,187,147);stroke-width:1.5;vector-effect:non-scaling-stroke;" /><line x1="3280" y1="1472" x2="3280" y2="1536" style="stroke:rgb(255,187,147);stroke-width:1.5;vector-effect:non-scaling-stroke;" /><line x1="3280" y1="1536" x2="3280" y2="1600" style="stroke:rgb(255,187,147);stroke-width:1.5;vector-effect:non-scaling-stroke;" /><line x1="3280" y1="1536" x2="3344" y2="1536" style="stroke:rgb(183,183,183);stroke-width:1.5;vector-effect:non-scaling-stroke;" /><line x1="3344" y1="1536" x2="3408" y2="1536" style="stroke:rgb(183,183,183);stroke-width:1.5;vector-effect:non-scaling-stroke;" /><line x1="3344" y1="1472" x2="3344" y2="1536" style="stroke:rgb(183,183,183);stroke-width:1.5;vector-effect:non-scaling-stroke;" /><line x1="3344" y1="1536" x2="3344" y2="1600" style="stroke:rgb(183,183,183);stroke-width:1.5;vector-effect:non-scaling-stroke;" /><line x1="3248" y1="1632" x2="3440" y2="1632" style="stroke:rgb(183,183,183);stroke-width:1.5;vector-effect:non-scaling-stroke;" /><line x1="3440" y1="1632" x2="3440" y2="1440" style="stroke:rgb(183,183,183);stroke-width:1.5;vector-effect:non-scaling-stroke;" /><line x1="3440" y1="1440" x2="3248" y2="1440" style="stroke:rgb(183,183,183);stroke-width:1.5;vector-effect:non-scaling-stroke;" /><line x1="3248" y1="1440" x2="3248" y2="1632" style="stroke:rgb(183,183,183);stroke-width:1.5;vector-effect:non-scaling-stroke;" /><line x1="3264" y1="1456" x2="3424" y2="1456" style="stroke:rgb(255,187,147);stroke-width:1.5;vector-effect:non-scaling-stroke;" /><line x1="3424" y1="1456" x2="3424" y2="1616" style="stroke:rgb(255,187,147);stroke-width:1.5;vector-effect:non-scaling-stroke;" /><line x1="3424" y1="1616" x2="3264" y2="1616" style="stroke:rgb(255,187,147);stroke-width:1.5;vector-effect:non-scaling-stroke;" /><line x1="3264" y1="1616" x2="3264" y2="1456" style="stroke:rgb(255,187,147);stroke-width:1.5;vector-effect:non-scaling-stroke;" /><line x1="3664" y1="384" x2="3344" y2="384" style="stroke:rgb(211,115,115);stroke-width:1.5;vector-effect:non-scaling-stroke;" /><line x1="3344" y1="384" x2="3344" y2="0" style="stroke:rgb(211,115,115);stroke-width:1.5;vector-effect:non-scaling-stroke;" /><line x1="3344" y1="0" x2="3664" y2="0" style="stroke:rgb(211,115,115);stroke-width:1.5;vector-effect:non-scaling-stroke;" /><line x1="3664" y1="0" x2="3664" y2="384" style="stroke:rgb(211,115,115);stroke-width:1.5;vector-effect:non-scaling-stroke;" /><line x1="3456" y1="144" x2="3552" y2="144" style="stroke:rgb(183,183,183);stroke-width:1.5;vector-effect:non-scaling-stroke;" /><line x1="3552" y1="144" x2="3552" y2="240" style="stroke:rgb(183,183,183);stroke-width:1.5;vector-effect:non-scaling-stroke;" /><line x1="3552" y1="240" x2="3456" y2="240" style="stroke:rgb(183,183,183);stroke-width:1.5;vector-effect:non-scaling-stroke;" /><line x1="3456" y1="240" x2="3456" y2="144" style="stroke:rgb(183,183,183);stroke-width:1.5;vector-effect:non-scaling-stroke;" /><line x1="3456" y1="3744" x2="3464" y2="3744" style="stroke:rgb(255,255,255);stroke-width:1.5;vector-effect:non-scaling-stroke;" /><line x1="3464" y1="3824" x2="3456" y2="3824" style="stroke:rgb(255,255,255);stroke-width:1.5;vector-effect:non-scaling-stroke;" /><line x1="3488" y1="3824" x2="3464" y2="3824" style="stroke:rgb(211,115,115);stroke-width:1.5;vector-effect:non-scaling-stroke;" /><line x1="3464" y1="3744" x2="3488" y2="3760" style="stroke:rgb(211,115,115);stroke-width:1.5;vector-effect:non-scaling-stroke;" /><line x1="3488" y1="3760" x2="3488" y2="3824" style="stroke:rgb(211,115,115);stroke-width:1.5;vector-effect:non-scaling-stroke;" /><line x1="3464" y1="3824" x2="3464" y2="3744" style="stroke:rgb(211,115,115);stroke-width:1.5;vector-effect:non-scaling-stroke;" /><g width="32" height="32" transform="translate(2768, 6880)" style="stroke:rgb(119, 255, 111);"><line x1="0" y1="-12" x2="0" y2="16" transform="rotate(270)" vector-effect="non-scaling-stroke"/><line x1="0" y1="16" x2="4" y2="8" transform="rotate(270)" vector-effect="non-scaling-stroke"/><line x1="0" y1="16" x2="-4" y2="8" transform="rotate(270)" vector-effect="non-scaling-stroke"/><line x1="0" y1="-12" x2="4" y2="-16" transform="rotate(270)" vector-effect="non-scaling-stroke"/><line x1="0" y1="-12" x2="-4" y2="-16" transform="rotate(270)" vector-effect="non-scaling-stroke"/><line x1="0" y1="-8" x2="4" y2="-12" transform="rotate(270)" vector-effect="non-scaling-stroke"/><line x1="0" y1="-8" x2="-4" y2="-12" transform="rotate(270)" vector-effect="non-scaling-stroke"/></g><g width="32" height="32" transform="translate(2768, 6816)" style="stroke:rgb(183, 183, 183);"><line x1="0" y1="-12" x2="0" y2="16" transform="rotate(270)" vector-effect="non-scaling-stroke"/><line x1="0" y1="16" x2="4" y2="8" transform="rotate(270)" vector-effect="non-scaling-stroke"/><line x1="0" y1="16" x2="-4" y2="8" transform="rotate(270)" vector-effect="non-scaling-stroke"/><line x1="0" y1="-12" x2="4" y2="-16" transform="rotate(270)" vector-effect="non-scaling-stroke"/><line x1="0" y1="-12" x2="-4" y2="-16" transform="rotate(270)" vector-effect="non-scaling-stroke"/><line x1="0" y1="-8" x2="4" y2="-12" transform="rotate(270)" vector-effect="non-scaling-stroke"/><line x1="0" y1="-8" x2="-4" y2="-12" transform="rotate(270)" vector-effect="non-scaling-stroke"/></g><g width="32" height="32" transform="translate(2704, 6944)" style="stroke:rgb(191, 123, 75);"><line x1="0" y1="-12" x2="0" y2="16" transform="rotate(270)" vector-effect="non-scaling-stroke"/><line x1="0" y1="16" x2="4" y2="8" transform="rotate(270)" vector-effect="non-scaling-stroke"/><line x1="0" y1="16" x2="-4" y2="8" transform="rotate(270)" vector-effect="non-scaling-stroke"/><line x1="0" y1="-12" x2="4" y2="-16" transform="rotate(270)" vector-effect="non-scaling-stroke"/><line x1="0" y1="-12" x2="-4" y2="-16" transform="rotate(270)" vector-effect="non-scaling-stroke"/><line x1="0" y1="-8" x2="4" y2="-12" transform="rotate(270)" vector-effect="non-scaling-stroke"/><line x1="0" y1="-8" x2="-4" y2="-12" transform="rotate(270)" vector-effect="non-scaling-stroke"/></g><g width="32" height="32" transform="translate(2704, 6816)" style="stroke:rgb(155, 51, 51);"><line x1="0" y1="-12" x2="0" y2="16" transform="rotate(270)" vector-effect="non-scaling-stroke"/><line x1="0" y1="16" x2="4" y2="8" transform="rotate(270)" vector-effect="non-scaling-stroke"/><line x1="0" y1="16" x2="-4" y2="8" transform="rotate(270)" vector-effect="non-scaling-stroke"/><line x1="0" y1="-12" x2="4" y2="-16" transform="rotate(270)" vector-effect="non-scaling-stroke"/><line x1="0" y1="-12" x2="-4" y2="-16" transform="rotate(270)" vector-effect="non-scaling-stroke"/><line x1="0" y1="-8" x2="4" y2="-12" transform="rotate(270)" vector-effect="non-scaling-stroke"/><line x1="0" y1="-8" x2="-4" y2="-12" transform="rotate(270)" vector-effect="non-scaling-stroke"/></g></svg>
